<svg width="50" height="51" viewBox="0 0 50 51" fill="none" xmlns="http://www.w3.org/2000/svg">
<path d="M37.9838 41.9925C37.6013 42.3799 37.3088 42.8468 37.1271 43.3599L36.8718 44.0807C36.819 44.2099 36.793 44.3483 36.7954 44.4878C36.7977 44.6273 36.8284 44.7648 36.8855 44.892C36.9427 45.0193 37.0251 45.1336 37.1277 45.228C37.2303 45.3225 37.3511 45.3951 37.4826 45.4414C37.6142 45.4878 37.7538 45.507 37.893 45.4977C38.0321 45.4885 38.168 45.4511 38.2923 45.3878C38.4166 45.3245 38.5267 45.2366 38.616 45.1295C38.7053 45.0223 38.7719 44.8981 38.8117 44.7645L39.0671 44.0437C39.1498 43.8133 39.2819 43.6038 39.4542 43.43C40.3892 42.4785 41.9502 40.4727 41.9502 37.7378V30.7564C41.9517 29.9157 41.6319 29.1063 41.056 28.4937C40.4802 27.8811 39.6921 27.5118 38.8529 27.4614C38.5073 27.4515 38.1624 27.4974 37.8314 27.5973C37.6106 27.1124 37.2717 26.6905 36.8457 26.3703C36.4198 26.0501 35.9203 25.8418 35.3931 25.7645C34.9365 25.701 34.4716 25.7361 34.0298 25.8674C33.8208 25.4058 33.5042 25.001 33.1064 24.6871C32.7087 24.3732 32.2414 24.1593 31.7439 24.0634C31.1933 23.961 30.6255 24.0036 30.0963 24.187L29.9275 17.8893C29.9087 17.1441 29.628 16.4293 29.1346 15.8704C28.6413 15.3115 27.9668 14.9443 27.2297 14.8332C26.798 14.7753 26.359 14.8088 25.9411 14.9314C25.5231 15.054 25.1356 15.263 24.8036 15.5449C24.4717 15.8268 24.2026 16.1753 24.0138 16.5678C23.8251 16.9603 23.721 17.3881 23.7081 17.8234L23.2962 32.927C23.2277 32.8665 23.1643 32.8004 23.1067 32.7293L21.9205 30.6988C21.43 29.8688 20.706 29.2017 19.8387 28.7805C18.9715 28.3593 17.9995 28.2028 17.0439 28.3305C16.6942 28.3787 16.3612 28.5103 16.0731 28.7144C15.785 28.9184 15.5503 29.1887 15.3887 29.5026C15.2271 29.8165 15.1435 30.1646 15.1448 30.5176C15.1461 30.8706 15.2324 31.2181 15.3964 31.5308L19.9559 40.345C20.3694 41.1357 20.9975 41.7938 21.7681 42.2438L21.8876 42.3014L24.1694 43.2487L24.2476 43.2776C24.431 43.3367 24.598 43.4379 24.7354 43.573C24.8727 43.7082 24.9765 43.8736 25.0385 44.056L25.2773 44.748C25.3679 45.0037 25.5557 45.2133 25.7999 45.3313C26.0441 45.4494 26.325 45.4663 26.5816 45.3784C26.8382 45.2905 27.0498 45.1049 27.1704 44.8619C27.2909 44.619 27.3108 44.3382 27.2255 44.0807L26.9866 43.3888C26.8225 42.9116 26.5517 42.478 26.1948 42.1212C25.838 41.7643 25.4045 41.4935 24.9272 41.3294L22.7443 40.4232C22.3257 40.171 21.984 39.8092 21.7558 39.3771L17.1716 30.567C17.1606 30.5468 17.1548 30.5243 17.1546 30.5014C17.1544 30.4785 17.1598 30.4559 17.1704 30.4356C17.181 30.4152 17.1964 30.3978 17.2152 30.3848C17.2341 30.3718 17.2559 30.3637 17.2787 30.361C17.8348 30.2844 18.4012 30.3736 18.9068 30.6176C19.4124 30.8616 19.8346 31.2495 20.1206 31.7326L21.3563 33.8167C21.3762 33.8523 21.3982 33.8867 21.4222 33.9197C22.2459 34.9988 23.6793 35.6825 24.8531 34.9041C24.9901 34.8135 25.1035 34.6915 25.1837 34.5482C25.264 34.4049 25.3088 34.2445 25.3144 34.0803L25.7798 17.8811C25.7842 17.7336 25.8196 17.5888 25.8837 17.4559C25.9478 17.323 26.0392 17.2052 26.1519 17.11C26.2645 17.0148 26.396 16.9444 26.5377 16.9034C26.6794 16.8624 26.8282 16.8517 26.9743 16.872C27.2267 16.9163 27.4557 17.0477 27.6212 17.2434C27.7868 17.4391 27.8785 17.6866 27.8804 17.9429L28.107 26.4482C28.1139 26.6857 28.2029 26.9136 28.3587 27.093C28.5145 27.2725 28.7276 27.3925 28.9618 27.4328C29.1961 27.473 29.437 27.431 29.6438 27.3139C29.8506 27.1967 30.0105 27.0116 30.0963 26.79C30.1918 26.5367 30.3745 26.3258 30.6115 26.1952C30.8486 26.0646 31.1245 26.0228 31.3896 26.0775C31.6548 26.1416 31.8899 26.2948 32.0556 26.5114C32.2213 26.7281 32.3075 26.9951 32.2999 27.2678V27.5026C32.2996 27.7127 32.3636 27.9178 32.4832 28.0905C32.6028 28.2632 32.7724 28.3951 32.9692 28.4687C33.166 28.5422 33.3806 28.5537 33.5842 28.5018C33.7877 28.4499 33.9705 28.3369 34.108 28.1781C34.2331 28.0321 34.3932 27.9204 34.5733 27.8533C34.7535 27.7863 34.9477 27.7663 35.1377 27.795C35.416 27.8493 35.6662 28.0002 35.844 28.221C36.0219 28.4418 36.116 28.7184 36.1098 29.0018V29.2284C36.1095 29.4384 36.1734 29.6436 36.2931 29.8163C36.4127 29.989 36.5823 30.1209 36.7791 30.1944C36.9759 30.2679 37.1905 30.2795 37.3941 30.2276C37.5976 30.1756 37.7804 30.0627 37.9179 29.9038C38.0275 29.7728 38.165 29.6678 38.3204 29.5965C38.4757 29.5253 38.645 29.4895 38.8158 29.492C39.1228 29.5181 39.4081 29.6607 39.6133 29.8904C39.8185 30.1202 39.9281 30.4197 39.9197 30.7276V37.7378C39.8908 39.8178 38.5563 41.4035 37.9838 41.9925Z" fill="#8800EC"/>
<path d="M9 10.0554C9 10.3285 9.10849 10.5904 9.30159 10.7835C9.4947 10.9766 9.75661 11.0851 10.0297 11.0851H12.5257V13.5811C12.5257 13.8542 12.6342 14.1161 12.8273 14.3092C13.0204 14.5023 13.2823 14.6108 13.5554 14.6108C13.8285 14.6108 14.0904 14.5023 14.2835 14.3092C14.4766 14.1161 14.5851 13.8542 14.5851 13.5811V11.0851H17.0811C17.3542 11.0851 17.6161 10.9766 17.8092 10.7835C18.0023 10.5904 18.1108 10.3285 18.1108 10.0554C18.1108 9.78229 18.0023 9.52039 17.8092 9.32728C17.6161 9.13417 17.3542 9.02569 17.0811 9.02569H14.5851V6.5297C14.5851 6.25661 14.4766 5.9947 14.2835 5.80159C14.0904 5.60849 13.8285 5.5 13.5554 5.5C13.2823 5.5 13.0204 5.60849 12.8273 5.80159C12.6342 5.9947 12.5257 6.25661 12.5257 6.5297V9.02569H10.0297C9.75661 9.02569 9.4947 9.13417 9.30159 9.32728C9.10849 9.52039 9 9.78229 9 10.0554Z" fill="#8800EC"/>
<path d="M23.2633 9.0257C22.9902 9.0257 22.7283 9.13418 22.5352 9.32729C22.3421 9.52039 22.2336 9.7823 22.2336 10.0554C22.2336 10.3285 22.3421 10.5904 22.5352 10.7835C22.7283 10.9766 22.9902 11.0851 23.2633 11.0851H29.3839C29.657 11.0851 29.9189 10.9766 30.112 10.7835C30.3051 10.5904 30.4136 10.3285 30.4136 10.0554C30.4136 9.7823 30.3051 9.52039 30.112 9.32729C29.9189 9.13418 29.657 9.0257 29.3839 9.0257H23.2633Z" fill="#8800EC"/>
<path d="M10.1905 25.3238C10.2861 25.4197 10.3997 25.4957 10.5248 25.5477C10.6499 25.5996 10.784 25.6263 10.9195 25.6263C11.0549 25.6263 11.189 25.5996 11.3141 25.5477C11.4392 25.4957 11.5529 25.4197 11.6485 25.3238L13.5555 23.4168L15.4625 25.3238C15.6559 25.5171 15.9181 25.6257 16.1915 25.6257C16.465 25.6257 16.7272 25.5171 16.9206 25.3238C17.1139 25.1304 17.2225 24.8682 17.2225 24.5947C17.2225 24.3213 17.1139 24.0591 16.9206 23.8657L15.0136 21.9587L16.9206 20.0517C17.1139 19.8584 17.2225 19.5961 17.2225 19.3227C17.2225 19.0492 17.1139 18.787 16.9206 18.5937C16.7272 18.4003 16.465 18.2917 16.1915 18.2917C15.9181 18.2917 15.6559 18.4003 15.4625 18.5937L13.5555 20.5007L11.6485 18.5937C11.4552 18.4003 11.1929 18.2917 10.9195 18.2917C10.646 18.2917 10.3838 18.4003 10.1905 18.5937C9.9971 18.787 9.88848 19.0492 9.88848 19.3227C9.88848 19.4581 9.91515 19.5921 9.96696 19.7172C10.0188 19.8423 10.0947 19.956 10.1905 20.0517L12.0975 21.9587L10.1905 23.8657C10.0946 23.9614 10.0185 24.075 9.96657 24.2001C9.91466 24.3252 9.88794 24.4593 9.88794 24.5947C9.88794 24.7302 9.91466 24.8643 9.96657 24.9894C10.0185 25.1145 10.0946 25.2281 10.1905 25.3238Z" fill="#8800EC"/>
</svg>
