<svg width="40" height="40" viewBox="0 0 40 40" fill="none" xmlns="http://www.w3.org/2000/svg">
<path d="M33.2599 22.0199V30.1554C33.2599 34.6647 29.5913 38.3333 25.082 38.3333H20.6701C17.6703 38.3333 15.0887 36.843 13.5869 34.2446L8.56922 25.5526C8.08262 24.7096 8.37328 23.6268 9.21662 23.1387C10.1192 22.6177 11.1535 22.4626 12.1297 22.7021C13.1259 22.9465 13.9627 23.5798 14.4852 24.4854L15.73 26.6411V14.4791C15.73 13.035 16.9049 11.8601 18.349 11.8601C19.7932 11.8601 20.9703 13.035 20.9703 14.4791V19.1492C21.4103 18.8139 21.9596 18.6145 22.5543 18.6145C23.4148 18.6145 24.1795 19.0308 24.6577 19.6725C25.1355 19.0308 25.8998 18.6145 26.7595 18.6145C27.8343 18.6145 28.7598 19.2642 29.1639 20.1908C29.5989 19.8004 30.1738 19.5629 30.8028 19.5629C32.1576 19.5629 33.2599 20.6652 33.2599 22.0199ZM12.3624 16.0803C12.5995 16.0803 12.8386 16.0042 13.0407 15.8476C13.5246 15.4726 13.6129 14.7759 13.2378 14.292C12.3566 13.1549 11.8906 11.7898 11.8906 10.3438C11.8906 6.78172 14.7877 3.88388 18.3482 3.88388C21.9088 3.88388 24.8081 6.78172 24.8081 10.3438C24.8081 11.7894 24.3425 13.1549 23.461 14.292C23.0859 14.7759 23.1742 15.4726 23.6581 15.8476C24.142 16.2227 24.8387 16.1345 25.2138 15.6506C26.399 14.1212 27.0257 12.2864 27.0257 10.3442C27.0257 5.55948 23.1329 1.66667 18.3482 1.66667C13.5636 1.66667 9.67267 5.55948 9.67267 10.3442C9.67267 12.2864 10.2991 14.1212 11.4846 15.6509C11.7031 15.9328 12.0308 16.0806 12.362 16.0806L12.3624 16.0803Z" fill="#888888"/>
</svg>
