<svg width="27" height="27" viewBox="0 0 27 27" fill="none" xmlns="http://www.w3.org/2000/svg">
<path d="M3.168 10.16C2.656 10.672 2.312 11.272 2.136 11.96C1.96 12.632 1.96 13.312 2.136 14C2.312 14.688 2.656 15.288 3.168 15.8C3.264 15.896 3.312 16.016 3.312 16.16C3.312 16.288 3.264 16.408 3.168 16.52C3.072 16.616 2.952 16.664 2.808 16.664C2.68 16.664 2.568 16.616 2.472 16.52C1.832 15.88 1.392 15.128 1.152 14.264C0.928 13.4 0.928 12.544 1.152 11.696C1.392 10.832 1.832 10.08 2.472 9.44C2.568 9.344 2.68 9.296 2.808 9.296C2.952 9.296 3.072 9.352 3.168 9.464C3.264 9.56 3.312 9.68 3.312 9.824C3.312 9.952 3.264 10.064 3.168 10.16ZM4.704 15.224C4.608 15.32 4.488 15.368 4.344 15.368C4.216 15.368 4.104 15.32 4.008 15.224C3.4 14.616 3.096 13.88 3.096 13.016C3.096 12.6 3.168 12.208 3.312 11.84C3.472 11.456 3.704 11.12 4.008 10.832C4.104 10.736 4.216 10.688 4.344 10.688C4.488 10.688 4.608 10.736 4.704 10.832C4.8 10.928 4.848 11.048 4.848 11.192C4.848 11.32 4.8 11.44 4.704 11.552C4.304 11.952 4.104 12.448 4.104 13.04C4.104 13.616 4.304 14.104 4.704 14.504C4.8 14.6 4.848 14.72 4.848 14.864C4.848 14.992 4.8 15.112 4.704 15.224ZM21.552 9.704C22.192 10.344 22.624 11.096 22.848 11.96C23.072 12.808 23.072 13.664 22.848 14.528C22.624 15.376 22.192 16.12 21.552 16.76C21.456 16.872 21.336 16.928 21.192 16.928C21.048 16.928 20.928 16.88 20.832 16.784C20.736 16.672 20.688 16.552 20.688 16.424C20.688 16.28 20.736 16.16 20.832 16.064C21.344 15.552 21.688 14.952 21.864 14.264C22.04 13.576 22.04 12.896 21.864 12.224C21.688 11.536 21.344 10.936 20.832 10.424C20.736 10.328 20.688 10.208 20.688 10.064C20.688 9.92 20.736 9.8 20.832 9.704C20.928 9.608 21.04 9.56 21.168 9.56C21.312 9.56 21.44 9.608 21.552 9.704ZM19.992 11.048H20.016C20.416 11.448 20.68 11.912 20.808 12.44C20.952 12.968 20.952 13.504 20.808 14.048C20.68 14.576 20.416 15.04 20.016 15.44C19.904 15.536 19.776 15.584 19.632 15.584C19.504 15.584 19.392 15.536 19.296 15.44C19.2 15.344 19.152 15.224 19.152 15.08C19.152 14.936 19.2 14.816 19.296 14.72C19.712 14.304 19.92 13.808 19.92 13.232C19.92 12.656 19.712 12.168 19.296 11.768C19.2 11.656 19.152 11.536 19.152 11.408C19.152 11.264 19.2 11.144 19.296 11.048C19.392 10.952 19.504 10.904 19.632 10.904C19.776 10.904 19.896 10.952 19.992 11.048ZM17.856 13.544C17.872 14.744 18.016 15.8 18.288 16.712C18.48 17.352 18.72 17.888 19.008 18.32C19.504 19.04 19.752 19.792 19.752 20.576V21.824C19.752 22.032 19.68 22.208 19.536 22.352C19.392 22.496 19.216 22.568 19.008 22.568H14.592C14.464 23.192 14.152 23.704 13.656 24.104C13.176 24.504 12.616 24.704 11.976 24.704C11.336 24.704 10.776 24.496 10.296 24.08C9.816 23.68 9.512 23.176 9.384 22.568H4.968C4.76 22.568 4.584 22.496 4.44 22.352C4.296 22.208 4.224 22.032 4.224 21.824V20.576C4.224 19.792 4.472 19.04 4.968 18.32C5.256 17.888 5.496 17.352 5.688 16.712C5.96 15.8 6.104 14.744 6.12 13.544V13.496C6.12 12.232 6.48 11.096 7.2 10.088C7.936 9.08 8.88 8.368 10.032 7.952C9.76 7.552 9.624 7.104 9.624 6.608C9.624 5.952 9.856 5.4 10.32 4.952C10.784 4.488 11.336 4.256 11.976 4.256C12.632 4.256 13.192 4.488 13.656 4.952C14.12 5.4 14.352 5.952 14.352 6.608C14.352 7.12 14.208 7.568 13.92 7.952C15.088 8.368 16.032 9.08 16.752 10.088C17.488 11.096 17.856 12.232 17.856 13.496C17.856 13.512 17.856 13.528 17.856 13.544ZM11.976 5.744C11.736 5.744 11.528 5.832 11.352 6.008C11.192 6.168 11.112 6.368 11.112 6.608C11.112 6.848 11.192 7.056 11.352 7.232C11.528 7.408 11.736 7.496 11.976 7.496C12.216 7.496 12.424 7.408 12.6 7.232C12.776 7.056 12.864 6.848 12.864 6.608C12.864 6.368 12.776 6.168 12.6 6.008C12.424 5.832 12.216 5.744 11.976 5.744ZM11.976 23.696C12.344 23.696 12.664 23.592 12.936 23.384C13.224 23.176 13.424 22.904 13.536 22.568H10.416C10.544 22.904 10.744 23.176 11.016 23.384C11.304 23.592 11.624 23.696 11.976 23.696ZM18.24 21.08V20.576C18.24 20.112 18.088 19.64 17.784 19.16C17.384 18.6 17.064 17.904 16.824 17.072C16.504 16.016 16.344 14.8 16.344 13.424V13.4C16.328 12.616 16.12 11.904 15.72 11.264C15.336 10.608 14.808 10.088 14.136 9.704C13.48 9.32 12.76 9.128 11.976 9.128C11.192 9.128 10.472 9.32 9.816 9.704C9.16 10.088 8.632 10.608 8.232 11.264C7.848 11.904 7.648 12.616 7.632 13.4V13.424C7.632 14.8 7.472 16.016 7.152 17.072C6.912 17.888 6.592 18.584 6.192 19.16C5.888 19.608 5.736 20.08 5.736 20.576V21.08H18.24Z" fill="#212121"/>
<circle cx="21" cy="6" r="5" fill="#006A6A" stroke="#FDFDFD" stroke-width="2"/>
</svg>
