<svg width="40" height="40" viewBox="0 0 40 40" fill="none" xmlns="http://www.w3.org/2000/svg">
<path d="M7.30882 22.7444H1.99985V37H7.30882V22.7444Z" fill="#888888"/>
<path d="M38.1018 24.0506C37.8099 23.657 37.3865 23.381 36.9085 23.2728C36.4305 23.1646 35.9296 23.2313 35.4965 23.4608L27.8069 27.7163C27.7238 28.5428 27.3392 29.3097 26.7265 29.8706C26.1137 30.4315 25.3159 30.7471 24.4853 30.757C24.4175 30.8823 17.0581 29.2431 16.7677 29.2052C16.6774 29.187 16.5916 29.151 16.5154 29.0993C16.4391 29.0477 16.3739 28.9813 16.3236 28.9042C16.2732 28.827 16.2388 28.7406 16.2222 28.65C16.2056 28.5594 16.2072 28.4664 16.2269 28.3764C16.2644 28.1941 16.3727 28.034 16.5281 27.9314C16.6834 27.8287 16.8731 27.7918 17.0556 27.8287L24.0921 29.3175C24.3858 29.3775 24.6896 29.3675 24.9788 29.2882C25.2679 29.2089 25.5343 29.0625 25.7564 28.861C26.0143 28.6428 26.2056 28.3564 26.3085 28.0345C26.4114 27.7127 26.4217 27.3684 26.3382 27.041C26.2547 26.7136 26.0807 26.4163 25.8363 26.1831C25.5918 25.9498 25.2867 25.7901 24.9557 25.722C24.7645 25.6979 17.2551 23.9331 17.0346 23.9243H11.255C10.5754 23.8645 9.27302 24.9817 8.71283 25.2725L8.71287 34.2964C9.26443 34.598 10.4728 35.6456 11.1356 35.5885L23.2845 35.5885C23.5625 35.5888 23.8351 35.5109 24.071 35.3638L37.519 27.0422C37.7651 26.8941 37.9774 26.6959 38.1422 26.4606C38.3069 26.2252 38.4204 25.9579 38.4753 25.676C38.5303 25.394 38.5254 25.1036 38.4611 24.8236C38.3967 24.5437 38.2744 24.2803 38.1018 24.0506Z" fill="#888888"/>
<circle cx="20.2573" cy="11.4764" r="8.47636" fill="#888888"/>
<path d="M21.5707 15.0918C21.4586 14.9871 21.3456 14.8824 21.2335 14.7777C20.9629 14.5266 20.6933 14.2745 20.4227 14.0234C20.0965 13.7204 19.7713 13.4174 19.4451 13.1145C19.1625 12.8513 18.8799 12.5881 18.5973 12.3259C18.4602 12.1981 18.324 12.0683 18.185 11.9423C18.1831 11.9405 18.1813 11.9386 18.1794 11.9368C18.2341 12.0674 18.2878 12.199 18.3425 12.3296C18.3425 12.2416 18.3425 12.1526 18.3425 12.0646C18.1572 12.2499 17.9719 12.4353 17.7865 12.6206C17.9663 12.6206 18.147 12.6206 18.3267 12.6206C18.5121 12.6206 18.6992 12.6271 18.8845 12.6187C19.3302 12.5983 19.7759 12.4686 20.1503 12.2231C20.5107 11.9868 20.822 11.6643 21.0222 11.2807C21.2288 10.886 21.3419 10.4357 21.3178 9.98906C21.2946 9.548 21.1658 9.10694 20.923 8.7363C20.6849 8.37308 20.3588 8.05804 19.9705 7.8579C19.6027 7.66887 19.2005 7.56602 18.7863 7.56509C18.3879 7.56509 17.9885 7.56509 17.5901 7.56509C17.5771 7.56509 17.5651 7.56509 17.5521 7.56509C17.4094 7.56509 17.2602 7.62717 17.1592 7.72817C17.0629 7.82454 16.9906 7.98299 16.9961 8.12105C17.0026 8.26467 17.0499 8.41385 17.1592 8.51392C17.2676 8.61399 17.402 8.677 17.5521 8.677C17.9422 8.677 18.3332 8.677 18.7233 8.677C18.8327 8.677 18.942 8.67978 19.0504 8.69368C19.0013 8.68719 18.9522 8.68071 18.9021 8.67422C19.0763 8.69739 19.2459 8.74372 19.4081 8.81136C19.3636 8.79283 19.3191 8.77429 19.2756 8.75576C19.434 8.8234 19.5823 8.9105 19.7185 9.01521C19.6814 8.98648 19.6434 8.95683 19.6064 8.92811C19.7379 9.03096 19.8556 9.14864 19.9585 9.28021C19.9297 9.24315 19.9001 9.20516 19.8714 9.1681C19.9761 9.30431 20.0632 9.45256 20.1308 9.61101C20.1123 9.56653 20.0937 9.52205 20.0752 9.4785C20.1429 9.64066 20.1892 9.81022 20.2124 9.98442C20.2059 9.93531 20.1994 9.8862 20.1929 9.83617C20.2151 10.0067 20.2151 10.1799 20.1929 10.3504C20.1994 10.3013 20.2059 10.2522 20.2124 10.2022C20.1892 10.3764 20.1429 10.5459 20.0752 10.7081C20.0937 10.6636 20.1123 10.6191 20.1308 10.5756C20.0632 10.734 19.9761 10.8823 19.8714 11.0185C19.9001 10.9814 19.9297 10.9434 19.9585 10.9064C19.8556 11.038 19.7379 11.1556 19.6064 11.2585C19.6434 11.2298 19.6814 11.2001 19.7185 11.1714C19.5823 11.2761 19.434 11.3632 19.2756 11.4308C19.32 11.4123 19.3645 11.3938 19.4081 11.3752C19.2459 11.4429 19.0763 11.4892 18.9021 11.5124C18.9513 11.5059 19.0004 11.4994 19.0504 11.4929C18.8855 11.5142 18.7196 11.5096 18.5538 11.5096C18.349 11.5096 18.1451 11.5096 17.9403 11.5096C17.8894 11.5096 17.8375 11.5096 17.7865 11.5096C17.4863 11.5096 17.2306 11.7644 17.2306 12.0655C17.2306 12.1517 17.2297 12.2379 17.2306 12.3241C17.2324 12.4807 17.2964 12.6335 17.4113 12.7401C17.4706 12.7948 17.5299 12.8504 17.5892 12.905C17.8477 13.145 18.1062 13.3859 18.3647 13.6259C18.7076 13.9447 19.0504 14.2634 19.3932 14.5831C19.7018 14.8703 20.0113 15.1576 20.3198 15.4448C20.4727 15.5875 20.6247 15.7302 20.7785 15.872C20.7804 15.8738 20.7831 15.8757 20.785 15.8775C20.8915 15.9767 21.0305 16.0406 21.1779 16.0406C21.3141 16.0406 21.4771 15.9804 21.5707 15.8775C21.668 15.7719 21.7403 15.6329 21.7338 15.4847C21.7273 15.3411 21.6791 15.1937 21.5707 15.0918Z" fill="white"/>
<path d="M17.5527 8.67693C17.7158 8.67693 17.8789 8.67693 18.042 8.67693C18.4339 8.67693 18.8259 8.67693 19.2178 8.67693C19.6904 8.67693 20.162 8.67693 20.6346 8.67693C21.0441 8.67693 21.4537 8.67693 21.8633 8.67693C22.0625 8.67693 22.2617 8.67878 22.46 8.67693C22.4628 8.67693 22.4655 8.67693 22.4683 8.67693C22.611 8.67693 22.7602 8.61485 22.8612 8.51385C22.9576 8.41749 23.0298 8.25904 23.0243 8.12098C23.0178 7.97735 22.9705 7.82817 22.8612 7.7281C22.7528 7.62803 22.6184 7.56502 22.4683 7.56502C22.3052 7.56502 22.1422 7.56502 21.9791 7.56502C21.5871 7.56502 21.1952 7.56502 20.8032 7.56502C20.3307 7.56502 19.859 7.56502 19.3865 7.56502C18.9769 7.56502 18.5674 7.56502 18.1578 7.56502C17.9586 7.56502 17.7594 7.56317 17.5611 7.56502C17.5583 7.56502 17.5555 7.56502 17.5527 7.56502C17.4101 7.56502 17.2609 7.6271 17.1599 7.7281C17.0635 7.82447 16.9912 7.98291 16.9968 8.12098C17.0033 8.2646 17.0505 8.41378 17.1599 8.51385C17.2683 8.61392 17.4026 8.67693 17.5527 8.67693Z" fill="white"/>
<path d="M17.5522 10.6496C17.7153 10.6496 17.8784 10.6496 18.0414 10.6496C18.4334 10.6496 18.8253 10.6496 19.2173 10.6496C19.6898 10.6496 20.1615 10.6496 20.634 10.6496C21.0436 10.6496 21.4531 10.6496 21.8627 10.6496C22.0619 10.6496 22.2611 10.6515 22.4594 10.6496C22.4622 10.6496 22.465 10.6496 22.4678 10.6496C22.6105 10.6496 22.7596 10.5875 22.8606 10.4865C22.957 10.3902 23.0293 10.2317 23.0237 10.0937C23.0172 9.95005 22.97 9.80087 22.8606 9.70079C22.7522 9.60072 22.6179 9.53771 22.4678 9.53771C22.3047 9.53771 22.1416 9.53771 21.9785 9.53771C21.5866 9.53771 21.1946 9.53771 20.8027 9.53771C20.3301 9.53771 19.8585 9.53771 19.3859 9.53771C18.9764 9.53771 18.5668 9.53771 18.1573 9.53771C17.958 9.53771 17.7588 9.53586 17.5605 9.53771C17.5578 9.53771 17.555 9.53771 17.5522 9.53771C17.4095 9.53771 17.2603 9.5998 17.1593 9.70079C17.063 9.79716 16.9907 9.95561 16.9962 10.0937C17.0027 10.2373 17.05 10.3865 17.1593 10.4865C17.2677 10.5866 17.4021 10.6496 17.5522 10.6496Z" fill="white"/>
</svg>
