<svg width="50" height="50" viewBox="0 0 50 50" fill="none" xmlns="http://www.w3.org/2000/svg">
<path d="M21.1453 18.3379L20.5562 19.146L21.1453 18.3379ZM25 6.47118L24.3233 7.20741C24.7059 7.5591 25.2941 7.5591 25.6767 7.20741L25 6.47118ZM28.8547 18.3379L29.4438 19.146L28.8547 18.3379ZM25 20.1583L25 21.1583L25 20.1583ZM21.7344 17.5298C20.2802 16.4698 18.708 15.166 17.5092 13.7763C16.2863 12.3588 15.5833 11.0028 15.5833 9.82245H13.5833C13.5833 11.7361 14.6782 13.5566 15.9948 15.0827C17.3354 16.6368 19.0442 18.0438 20.5562 19.146L21.7344 17.5298ZM15.5833 9.82245C15.5833 7.40699 16.7923 5.91252 18.3529 5.38735C19.9488 4.85026 22.1828 5.2399 24.3233 7.20741L25.6767 5.73495C23.1299 3.39394 20.1555 2.67049 17.715 3.49181C15.239 4.32504 13.5833 6.66047 13.5833 9.82245H15.5833ZM29.4438 19.146C30.9558 18.0438 32.6646 16.6368 34.0052 15.0828C35.3218 13.5566 36.4167 11.7361 36.4167 9.82242H34.4167C34.4167 11.0028 33.7137 12.3589 32.4909 13.7764C31.2921 15.166 29.7199 16.4698 28.2657 17.5298L29.4438 19.146ZM36.4167 9.82242C36.4167 6.66045 34.761 4.32503 32.285 3.4918C29.8445 2.67049 26.8701 3.39394 24.3233 5.73494L25.6767 7.20741C27.8172 5.2399 30.0512 4.85026 31.6471 5.38735C33.2077 5.91251 34.4167 7.40698 34.4167 9.82242H36.4167ZM20.5562 19.146C22.1624 20.3168 23.2604 21.1583 25 21.1583L25 19.1583C24.0247 19.1583 23.4579 18.7862 21.7344 17.5298L20.5562 19.146ZM28.2657 17.5298C26.5422 18.7862 25.9754 19.1583 25 19.1583L25 21.1583C26.7396 21.1583 27.8377 20.3168 29.4438 19.146L28.2657 17.5298Z" fill="#8800EC"/>
<path d="M10.4167 42.4758H15.1249C17.2308 42.4758 19.3594 42.6952 21.409 43.1175C25.0345 43.8644 28.8518 43.9549 32.5145 43.362C34.3204 43.0697 36.0959 42.6227 37.7031 41.847C39.1539 41.1467 40.9311 40.1596 42.1248 39.054C43.3169 37.95 44.5583 36.1431 45.4394 34.7307C46.195 33.5196 45.8295 32.0338 44.6344 31.1314C43.3069 30.129 41.3369 30.1292 40.0096 31.1318L36.2446 33.9759C34.7855 35.0782 33.1916 36.0928 31.2929 36.3957C31.0646 36.4321 30.8253 36.4653 30.5757 36.4942M30.5757 36.4942C30.5006 36.5029 30.4245 36.5112 30.3475 36.5191M30.5757 36.4942C30.8795 36.4291 31.1811 36.2418 31.4641 35.9948C32.8041 34.8252 32.8888 32.8542 31.7261 31.5482C31.4564 31.2452 31.1407 30.9925 30.7897 30.7831C24.9619 27.3072 15.8946 29.9546 10.4167 33.8394M30.5757 36.4942C30.4997 36.5105 30.4235 36.5191 30.3475 36.5191M30.3475 36.5191C29.2572 36.6311 27.9816 36.66 26.5662 36.5263" stroke="#8800EC" stroke-width="2" stroke-linecap="round"/>
<rect x="4.16666" y="29.1667" width="6.25" height="16.6667" rx="1.5" stroke="#8800EC" stroke-width="2"/>
</svg>
