<svg width="22" height="22" viewBox="0 0 22 22" fill="none" xmlns="http://www.w3.org/2000/svg">
<path fill-rule="evenodd" clip-rule="evenodd" d="M5.7619 1.02393C3.14512 1.02393 1.0238 3.14524 1.0238 5.76202V16.2382C1.0238 18.855 3.14512 20.9763 5.7619 20.9763H16.2381C18.8549 20.9763 20.9762 18.855 20.9762 16.2382V5.76202C20.9762 3.14524 18.8549 1.02393 16.2381 1.02393H5.7619ZM0.0238037 5.76202C0.0238037 2.59296 2.59284 0.0239258 5.7619 0.0239258H16.2381C19.4072 0.0239258 21.9762 2.59296 21.9762 5.76202V16.2382C21.9762 19.4073 19.4072 21.9763 16.2381 21.9763H5.7619C2.59284 21.9763 0.0238037 19.4073 0.0238037 16.2382V5.76202ZM11.5866 7.30404C10.8188 7.19017 10.0346 7.32133 9.34559 7.67884C8.65658 8.03636 8.09785 8.60203 7.74886 9.29539C7.39986 9.98876 7.27839 10.7745 7.40171 11.5409C7.52503 12.3073 7.88687 13.0153 8.43576 13.5642C8.98464 14.113 9.69263 14.4749 10.459 14.5982C11.2254 14.7215 12.0112 14.6 12.7045 14.2511C13.3979 13.9021 13.9636 13.3433 14.3211 12.6543C14.6786 11.9653 14.8097 11.1811 14.6959 10.4133C14.5797 9.63003 14.2148 8.90492 13.6549 8.34503C13.095 7.78515 12.3699 7.42018 11.5866 7.30404ZM8.88502 6.79122C9.76073 6.33683 10.7574 6.17014 11.7333 6.31485C12.7288 6.46247 13.6504 6.92633 14.362 7.63793C15.0736 8.34952 15.5374 9.27112 15.6851 10.2666C15.8298 11.2425 15.6631 12.2392 15.2087 13.1149C14.7543 13.9906 14.0354 14.7007 13.1541 15.1443C12.2729 15.5878 11.2742 15.7422 10.3001 15.5855C9.32609 15.4288 8.42627 14.9689 7.72865 14.2713C7.03103 13.5736 6.57115 12.6738 6.41441 11.6998C6.25767 10.7257 6.41206 9.72705 6.85562 8.8458C7.29918 7.96456 8.00931 7.24561 8.88502 6.79122ZM16.7619 4.73821C16.4858 4.73821 16.2619 4.96207 16.2619 5.23821C16.2619 5.51435 16.4858 5.73821 16.7619 5.73821H16.7719C17.048 5.73821 17.2719 5.51435 17.2719 5.23821C17.2719 4.96207 17.048 4.73821 16.7719 4.73821H16.7619Z" fill="white"/>
</svg>
