<svg width="23" height="22" viewBox="0 0 23 22" fill="none" xmlns="http://www.w3.org/2000/svg">
<path fill-rule="evenodd" clip-rule="evenodd" d="M1.04761 2.75005C1.04761 1.80912 1.8065 1.05005 2.73808 1.05005C3.66967 1.05005 4.42856 1.80912 4.42856 2.75005C4.42856 3.69098 3.66967 4.45005 2.73808 4.45005C1.8065 4.45005 1.04761 3.69098 1.04761 2.75005ZM2.73808 0.0500488C1.25013 0.0500488 0.0476074 1.26093 0.0476074 2.75005C0.0476074 4.23917 1.25013 5.45005 2.73808 5.45005C4.22604 5.45005 5.42856 4.23917 5.42856 2.75005C5.42856 1.26093 4.22604 0.0500488 2.73808 0.0500488ZM15.8809 7.65005C14.2714 7.65005 12.7273 8.2922 11.5886 9.43593C10.4497 10.5797 9.80951 12.1315 9.80951 13.75V20.9501H13.1905V13.75C13.1905 13.0347 13.4734 12.3481 13.9777 11.8416C14.4821 11.335 15.1667 11.05 15.8809 11.05C16.5952 11.05 17.2798 11.335 17.7842 11.8416C18.2885 12.3481 18.5714 13.0347 18.5714 13.75V20.9501H21.9524V13.75C21.9524 12.1315 21.3122 10.5797 20.1733 9.43593C19.0345 8.2922 17.4905 7.65005 15.8809 7.65005ZM15.8809 6.65005C14.0048 6.65005 12.2059 7.39861 10.8799 8.73036C9.55401 10.062 8.80951 11.8677 8.80951 13.75V21.4501C8.80951 21.7262 9.03337 21.9501 9.30951 21.9501H13.6905C13.9666 21.9501 14.1905 21.7262 14.1905 21.4501V13.75C14.1905 13.2985 14.3691 12.8658 14.6864 12.5472C15.0036 12.2286 15.4333 12.05 15.8809 12.05C16.3286 12.05 16.7583 12.2286 17.0755 12.5472C17.3928 12.8658 17.5714 13.2985 17.5714 13.75V21.4501C17.5714 21.7262 17.7953 21.9501 18.0714 21.9501H22.4524C22.7285 21.9501 22.9524 21.7262 22.9524 21.4501V13.75C22.9524 11.8677 22.2079 10.062 20.882 8.73036C19.556 7.39861 17.7571 6.65005 15.8809 6.65005ZM0.0476074 8.25005C0.0476074 7.97391 0.271465 7.75005 0.547607 7.75005H4.92856C5.2047 7.75005 5.42856 7.97391 5.42856 8.25005V21.4501C5.42856 21.7262 5.2047 21.9501 4.92856 21.9501H0.547607C0.271465 21.9501 0.0476074 21.7262 0.0476074 21.4501V8.25005ZM1.04761 8.75005V20.9501H4.42856V8.75005H1.04761Z" fill="white"/>
</svg>
